<svg xmlns="http://www.w3.org/2000/svg" id="Laag_1" data-name="Laag 1" version="1.1" viewBox="174.45 262.67 496.15 73.23">
  <defs>
    <style>
      .cls-1 {
        fill: #f90;
      }

      .cls-1, .cls-2 {
        stroke-width: 0px;
      }

      .cls-2 {
        fill: #24219c;
      }
    </style>
  </defs>
  <g>
    <path class="cls-2" d="M305.6,268.5c-1.5,0-2.7.5-3.8,1.6-.8.8-1.2,1.7-1.4,2.7-1.3-1.1-2.7-2-4.3-2.8-2.6-1.3-5.6-2-9-2s-5.2.5-7.7,1.5c-2.6,1-5,2.4-7.1,4.4-2.2,1.9-3.9,4.4-5.3,7.4-1.3,3-2,6.5-2,10.4s.7,7.4,2,10.4c1.3,3,3.1,5.4,5.3,7.4,2.1,1.9,4.5,3.4,7.1,4.4,2.6,1,5.2,1.5,7.7,1.5s6.4-.7,9-2c1.5-.8,2.9-1.7,4.2-2.7v2.5c0,8.5-3.7,12.5-11.7,12.5s-5.3-.3-7.5-.9c-2.2-.6-4.2-1.3-6-2.2-.3-.2-.7-.3-1-.4-.4,0-.7-.1-1.1-.1-1.4,0-2.6.6-3.5,1.6-.9,1-1.3,2.1-1.3,3.3s.2,2,.7,2.7c.4.6.9,1.1,1.4,1.5h.1c2.1,1.3,4.9,2.4,8.4,3.3,3.5.9,7,1.4,10.6,1.4,6.8,0,12.2-2.1,15.9-6.3,3.7-4.1,5.6-10,5.6-17.5v-38.2c0-1.5-.5-2.7-1.6-3.8-1-1-2.3-1.6-3.8-1.6ZM300.4,283.5v16.4c-1.4,1.4-3,2.6-4.8,3.8-1.8,1.2-4.1,1.7-6.8,1.7s-4.7-.5-6.7-1.5c-2-1-3.5-2.4-4.6-4.4-1.2-2-1.7-4.6-1.7-7.8s.6-5.8,1.7-7.8c1.1-2,2.7-3.5,4.6-4.4,2-1,4.3-1.5,6.7-1.5s5,.6,6.8,1.7c1.8,1.1,3.4,2.4,4.8,3.8Z"/>
    <path class="cls-2" d="M357.7,294.7c1-1,1.5-2.3,1.5-3.7,0-4-.8-7.8-2.5-11.2-1.7-3.5-4.1-6.3-7.4-8.5-3.2-2.2-7.2-3.3-11.9-3.3s-9.2,1.2-12.4,3.5c-3.2,2.3-5.6,5.4-7.1,9-1.5,3.6-2.2,7.5-2.2,11.5,0,7.5,2.1,13.5,6.3,17.7,4.2,4.2,10,6.4,17.3,6.4s7-.4,9.3-1.1c2.3-.7,4.4-1.7,6.4-2.8.8-.4,1.5-1,2-1.7.6-.8.9-1.7.9-2.7s-.5-2.5-1.5-3.4c-1-.9-2.1-1.3-3.3-1.3s-1.5.2-2.2.5c-1.5.8-3.1,1.4-4.8,1.8-1.6.4-3.7.7-6.1.7-4.2,0-7.5-1-9.6-3.1-1.9-1.8-3.1-4-3.7-6.7h27.3c1.6,0,2.9-.5,3.9-1.5ZM326.4,287.1c.3-2,.9-3.6,1.8-4.9,1.2-1.6,2.6-2.8,4.2-3.6,3.4-1.5,6.6-1.5,9.9,0,1.6.8,3.1,2,4.3,3.6.9,1.3,1.6,2.9,1.8,4.9h-22.1Z"/>
    <path class="cls-2" d="M407.6,279.6c-1.9-3.6-4.7-6.5-8.2-8.5-3.5-2-7.6-3.1-12.2-3.1s-8.7,1-12.2,3.1c-3.5,2-6.3,4.9-8.2,8.5-1.9,3.6-2.9,7.8-2.9,12.5s1,8.9,2.9,12.5c1.9,3.6,4.7,6.5,8.2,8.5,3.5,2,7.6,3.1,12.2,3.1s8.7-1,12.2-3.1c3.5-2,6.2-4.9,8.2-8.5,1.9-3.6,2.9-7.8,2.9-12.5s-1-8.9-2.9-12.5ZM399.9,292c0,3.5-.7,6.3-2,8.3-1.3,2.1-2.9,3.6-4.8,4.5-3.9,1.9-7.8,1.9-11.8,0-1.9-.9-3.6-2.4-4.8-4.5-1.3-2.1-1.9-4.9-1.9-8.4s.6-6.3,1.9-8.3c1.3-2,2.9-3.5,4.8-4.4,2-.9,4-1.4,5.9-1.4s3.9.5,5.9,1.4c1.9.9,3.5,2.4,4.8,4.4,1.3,2,2,4.8,2,8.3Z"/>
  </g>
  <g>
    <path class="cls-1" d="M433.2,290.3c-2-1-4.2-1.7-6.5-2.3-2.2-.5-4.3-1-6.2-1.5-1.8-.4-3.3-1-4.4-1.7-.8-.5-1.2-1.2-1.2-2.2s.2-1.9,1.9-3.1c1.5-1,3.6-1.5,6.5-1.5s3.5.1,5,.4c1.5.3,3,.6,4.3,1.1.2,0,.5.1.7.2.2,0,.5,0,.8,0,1.3,0,2.5-.5,3.5-1.5.9-1,1.4-2.1,1.4-3.4s-.3-1.8-.9-2.7c-.6-.9-1.5-1.6-2.6-1.9-1.8-.6-3.8-1.2-6-1.6-2.2-.4-4.5-.6-6.9-.6-5.9,0-10.4,1.4-13.4,4.2-3.1,2.8-4.6,6.4-4.6,10.7s.7,5.3,2.1,7.1c1.4,1.8,3.1,3.2,5.3,4.3,2,1,4.2,1.8,6.5,2.3,2.2.5,4.2,1.1,6.2,1.5,1.8.5,3.3,1,4.4,1.6,1,.5,1.1,1.2,1.1,1.7,0,1.5-.5,2.5-1.7,3.3-1.3.9-3.4,1.3-6.4,1.3s-4.4-.2-6.2-.7c-1.8-.5-3.4-1.1-4.9-1.7-.7-.3-1.4-.5-2.1-.5-1.4,0-2.6.5-3.5,1.5-.9,1-1.3,2.1-1.3,3.3s.7,3,2.1,4h.1c2.3,1.3,4.7,2.3,7.4,3,2.6.7,5.6,1.1,8.9,1.1,5.8,0,10.3-1.4,13.3-4.1,3.1-2.7,4.6-6.1,4.6-10s-.7-5.6-2.1-7.5c-1.4-1.8-3.1-3.3-5.3-4.3Z"/>
    <path class="cls-1" d="M485.6,268.5c-1.5,0-2.7.5-3.8,1.5-.8.8-1.3,1.7-1.5,2.8-1.4-1.2-2.9-2.1-4.5-2.9-2.6-1.2-5.5-1.8-8.7-1.8s-7.2,1-10.6,2.8c-3.4,1.9-6.2,4.6-8.3,8.2-2.1,3.6-3.2,8-3.2,13s1.1,9.5,3.2,13c2.1,3.6,4.9,6.3,8.3,8.2,3.4,1.9,6.9,2.8,10.6,2.8s6.2-.6,8.7-1.8c1.6-.8,3.1-1.7,4.5-2.8v18.5c0,1.5.5,2.7,1.6,3.8s2.3,1.6,3.8,1.6,2.8-.5,3.8-1.6c1-1,1.5-2.3,1.5-3.8v-56.3c0-1.5-.5-2.7-1.5-3.7-1-1-2.3-1.5-3.7-1.5ZM480.3,283.7v16.8c-1.5,1.5-3.2,2.8-5.2,3.9-2.1,1.1-4.4,1.7-6.9,1.7-3.7,0-6.6-1.2-9-3.5-2.4-2.3-3.6-5.8-3.6-10.4s1.2-8.2,3.5-10.5c2.4-2.3,5.4-3.5,9-3.5s4.9.6,6.9,1.7c2,1.1,3.7,2.4,5.2,3.9Z"/>
    <path class="cls-1" d="M535.7,268.5c-1.5,0-2.7.5-3.8,1.5-1.1,1-1.6,2.3-1.6,3.8v25.1c-1.6,1.9-3.4,3.5-5.4,5-2,1.5-4.4,2.2-7.2,2.2s-4.9-.7-6.1-2.2c-1.3-1.6-1.9-3.9-1.9-6.8v-23.4c0-1.5-.5-2.7-1.5-3.7-1-1-2.3-1.5-3.7-1.5s-2.7.5-3.8,1.5c-1.1,1-1.6,2.3-1.6,3.8v24.3c0,3.2.6,6.2,1.9,9,1.3,2.8,3.2,5,5.7,6.7,2.5,1.7,5.6,2.5,9.1,2.5s7.5-.9,10.3-2.7c1.5-1,2.9-2.1,4.2-3.2h0c0,1.6.5,2.9,1.6,3.9,1,1,2.3,1.6,3.8,1.6s2.8-.5,3.8-1.6c1-1,1.5-2.3,1.5-3.8v-36.7c0-1.5-.5-2.7-1.5-3.7-1-1-2.3-1.5-3.7-1.5Z"/>
    <path class="cls-1" d="M580.5,270.8c-2.8-1.8-6.5-2.7-10.9-2.7s-6,.3-8.5.9c-2.5.6-4.8,1.4-6.8,2.2-2,.9-3.1,2.4-3.1,4.6s.5,2.4,1.4,3.3c.9.9,2,1.4,3.2,1.4s.9,0,1.5-.2c1.6-.5,3.2-1,5-1.4,1.7-.4,3.7-.6,6-.6,3.5,0,6.1.7,7.7,2.1,1.4,1.2,2.2,3.4,2.3,6.4h-8.9c-7,0-12.3,1.4-15.7,4.2-3.6,2.9-5.4,6.6-5.4,11.1s.7,5.5,2.2,7.7c1.4,2.1,3.3,3.8,5.7,4.9,2.3,1.1,4.8,1.7,7.5,1.7,4.3,0,7.8-.7,10.6-2.2,1.5-.8,2.9-1.7,4.1-2.6.2,1.1.7,2.1,1.5,2.9,1,1,2.3,1.5,3.7,1.5s2.7-.5,3.8-1.5c1.1-1,1.6-2.3,1.6-3.8v-24.2c0-3-.7-5.9-2-8.7-1.4-2.8-3.5-5.1-6.3-6.9ZM578.2,295.8v5.2c-1.3,1.4-2.9,2.6-4.9,3.7-2.1,1.2-4.4,1.8-6.8,1.8s-5.1-.6-6.1-1.6c-1-1.1-1.5-2.4-1.5-3.8s.8-3.1,2.6-3.9c2.1-.9,5.1-1.4,8.9-1.4h7.9Z"/>
    <path class="cls-1" d="M621,268.1h-.4c-3.3,0-6.2.9-8.6,2.8-1.2.9-2.3,1.9-3.4,2.9,0-1.4-.6-2.7-1.6-3.7-1-1-2.3-1.6-3.8-1.6s-2.7.5-3.8,1.6c-1,1-1.5,2.3-1.5,3.8v36.7c0,1.5.5,2.7,1.5,3.7,1,1,2.3,1.5,3.7,1.5s2.7-.5,3.8-1.5c1.1-1,1.6-2.3,1.6-3.8v-25.5c1.3-1.9,3-3.4,5-4.7,2-1.2,4.4-1.9,6.9-1.9h.4c1.5,0,2.8-.5,3.8-1.4,1-.9,1.6-2.2,1.6-3.7s-.5-2.7-1.5-3.7c-1-1-2.2-1.5-3.7-1.5Z"/>
    <path class="cls-1" d="M664.3,303.1c-.8,0-1.5.2-2.2.5-1.5.8-3.1,1.4-4.8,1.8-1.6.4-3.7.7-6.1.7-4.2,0-7.5-1-9.6-3.1-1.9-1.8-3.1-4-3.7-6.7h27.3c1.6,0,2.9-.5,3.9-1.5,1-1,1.5-2.3,1.5-3.7,0-4-.8-7.8-2.5-11.2-1.7-3.5-4.1-6.3-7.4-8.5-3.2-2.2-7.2-3.3-11.9-3.3s-9.2,1.2-12.4,3.5c-3.2,2.3-5.6,5.4-7.1,9-1.5,3.6-2.2,7.5-2.2,11.5,0,7.5,2.1,13.5,6.3,17.7,4.2,4.2,10,6.4,17.3,6.4s7-.4,9.3-1.1c2.3-.7,4.4-1.7,6.4-2.8.8-.4,1.5-1,2-1.7.6-.8.9-1.7.9-2.7s-.5-2.5-1.5-3.4c-1-.9-2.1-1.3-3.3-1.3ZM637.8,287.1c.3-2,.9-3.6,1.8-4.9,1.2-1.6,2.6-2.8,4.2-3.6,3.4-1.5,6.6-1.5,9.9,0,1.6.8,3.1,2,4.3,3.6.9,1.3,1.6,2.9,1.8,4.9h-22.1Z"/>
  </g>
  <path class="cls-1" d="M239.8,294.4v-.4c-.4-8.2-3.8-15.9-9.6-21.7-11.1-11.1-28.5-12.8-41.4-4.1-1.7,1.2-3.3,2.5-4.8,3.9-1.7,1.7-3.2,3.6-4.6,5.8-8.1,12.9-6.1,29.6,4.8,40.4,5.6,5.6,13.1,9.1,21.1,9.6h28.8c1.6,0,3.1-.5,4.2-1.6,1.1-1.1,1.6-2.6,1.6-4.2v-27.7ZM225.2,313.4c-4.9,4.9-11.3,7.3-17.7,7.3s-13-2.5-18-7.5c-4.8-4.8-7.5-11.1-7.5-17.9,0-6.8,2.6-13.1,7.3-17.9,9.8-9.8,25.9-9.7,35.8.2h0c9.9,9.9,10,25.9.2,35.8Z"/>
  <g>
    <path class="cls-2" d="M214.7,287.7c0,4.2-3.4,7.5-7.5,7.5s-7.5-3.4-7.5-7.5,3.4-7.5,7.5-7.5,7.5,3.4,7.5,7.5"/>
    <path class="cls-2" d="M215.9,308.5h-17.6c-2.9,0-5.2-2.3-5.2-5.2s2.3-5.2,5.2-5.2h17.6c2.9,0,5.2,2.3,5.2,5.2s-2.3,5.2-5.2,5.2"/>
  </g>
</svg>