<svg xmlns="http://www.w3.org/2000/svg" id="Laag_1" data-name="Laag 1" version="1.1" viewBox="74.05 254.7 696.85 85.8">
  <defs>
    <style>
      .cls-1 {
        fill: #24219c;
      }

      .cls-1, .cls-2 {
        stroke-width: 0px;
      }

      .cls-2 {
        fill: #00c2ff;
      }
    </style>
  </defs>
  <path class="cls-2" d="M139.4,294.2v-.4c-.4-8.2-3.8-15.9-9.6-21.7-11.1-11.1-28.5-12.8-41.4-4.1-1.7,1.2-3.3,2.5-4.8,3.9-1.7,1.7-3.2,3.6-4.6,5.8-8.1,12.9-6.1,29.6,4.8,40.4,5.6,5.6,13.1,9.1,21.1,9.6h28.8c1.6,0,3.1-.5,4.2-1.6,1.1-1.1,1.6-2.6,1.6-4.2v-27.7ZM124.9,313.2c-4.9,4.9-11.3,7.3-17.7,7.3s-13-2.5-18-7.5c-4.8-4.8-7.5-11.1-7.5-17.9,0-6.8,2.6-13.1,7.3-17.9,9.8-9.8,25.9-9.7,35.8.2h0c9.9,9.9,10,25.9.2,35.8Z"/>
  <g>
    <path class="cls-1" d="M114.3,287.5c0,4.2-3.4,7.5-7.5,7.5s-7.5-3.4-7.5-7.5,3.4-7.5,7.5-7.5,7.5,3.4,7.5,7.5"/>
    <path class="cls-1" d="M115.6,308.3h-17.6c-2.9,0-5.2-2.3-5.2-5.2s2.3-5.2,5.2-5.2h17.6c2.9,0,5.2,2.3,5.2,5.2s-2.3,5.2-5.2,5.2"/>
  </g>
  <g>
    <path class="cls-1" d="M187.6,272.8h-.4c-3.3,0-6.2.9-8.6,2.8-1.2.9-2.4,1.9-3.4,2.9,0-1.4-.6-2.7-1.6-3.7-1-1-2.3-1.6-3.8-1.6s-2.7.5-3.8,1.6c-1,1-1.5,2.3-1.5,3.8v36.7c0,1.5.5,2.7,1.5,3.7,1,1,2.3,1.5,3.7,1.5s2.7-.5,3.8-1.5c1.1-1,1.6-2.3,1.6-3.8v-25.6c1.3-1.9,3-3.5,5-4.7,2-1.3,4.4-1.9,6.9-1.9h.4c1.5,0,2.8-.5,3.8-1.4,1-.9,1.6-2.2,1.6-3.7s-.5-2.7-1.5-3.7c-1-1-2.2-1.5-3.7-1.5Z"/>
    <path class="cls-1" d="M231.8,273.2c-1.5,0-2.7.5-3.8,1.5-1.1,1-1.6,2.3-1.6,3.8v25.2c-1.6,1.9-3.4,3.6-5.4,5.1-2.1,1.5-4.4,2.2-7.2,2.2s-4.9-.7-6.1-2.2c-1.3-1.6-1.9-3.9-1.9-6.8v-23.5c0-1.5-.5-2.7-1.5-3.7-1-1-2.3-1.5-3.7-1.5s-2.7.5-3.8,1.5c-1.1,1-1.6,2.3-1.6,3.8v24.3c0,3.2.6,6.2,1.9,9,1.3,2.8,3.2,5.1,5.7,6.7,2.5,1.7,5.6,2.5,9.1,2.5s7.5-.9,10.3-2.7c1.5-1,2.9-2.1,4.2-3.2h0c0,1.6.5,2.9,1.6,3.9,1,1,2.3,1.6,3.8,1.6s2.7-.5,3.8-1.6c1-1,1.5-2.3,1.5-3.8v-36.7c0-1.5-.5-2.7-1.5-3.7-1-1-2.3-1.5-3.7-1.5Z"/>
    <path class="cls-1" d="M251.3,273.2c-1.5,0-2.7.5-3.7,1.5-1,1-1.5,2.3-1.5,3.8v36.7c0,1.5.5,2.7,1.5,3.7,1,1,2.3,1.5,3.7,1.5s2.8-.5,3.8-1.5c1-1,1.5-2.3,1.5-3.7v-36.7c0-1.5-.5-2.8-1.5-3.8-1-1-2.3-1.5-3.8-1.5Z"/>
    <path class="cls-1" d="M327.3,275.6c-2.4-1.9-5.4-2.8-9.1-2.8s-6.2.6-8.5,1.7c-2.2,1.1-4.1,2.4-5.4,3.9-.6.7-1.2,1.3-1.7,1.9-1-1.6-2.3-3.1-4-4.5-2.4-2-5.6-3.1-9.3-3.1s-5.4.5-7.4,1.4c-2,.9-3.7,2-5.1,3.4-.2.2-.4.4-.6.6,0-1.3-.6-2.5-1.6-3.4-1-1-2.3-1.6-3.8-1.6s-2.7.5-3.8,1.6c-1,1-1.5,2.3-1.5,3.8v36.7c0,1.5.5,2.7,1.5,3.7,1,1,2.3,1.5,3.7,1.5s2.7-.5,3.8-1.5c1.1-1,1.6-2.3,1.6-3.8v-25.3c.7-1.1,1.5-2.2,2.5-3.3,1-1.1,2.2-2.1,3.5-2.8,1.3-.7,3-1.1,4.9-1.1,2.8,0,4.7.7,5.7,2.1,1.1,1.5,1.7,4,1.7,7.3v23.1c0,1.5.5,2.7,1.5,3.7,1,1,2.3,1.5,3.7,1.5s2.7-.5,3.8-1.5c1.1-1,1.6-2.3,1.6-3.8v-25.3c.7-1.1,1.5-2.2,2.5-3.3,1-1.1,2.2-2.1,3.5-2.8,1.3-.7,3-1.1,4.9-1.1,2.8,0,4.7.7,5.7,2.1,1.1,1.5,1.7,4,1.7,7.3v23.1c0,1.5.5,2.7,1.5,3.7,1,1,2.3,1.5,3.7,1.5s2.7-.5,3.8-1.5c1.1-1,1.6-2.3,1.6-3.8v-24.7c0-2.7-.5-5.5-1.6-8.1-1.1-2.7-2.8-5.1-5.1-6.9Z"/>
    <path class="cls-1" d="M363.9,310.6c-.9,0-1.8.2-2.6.5-.3.1-1,.3-2.5.3s-1.3,0-2.1-.2c-.5,0-1-.4-1.4-.8-.4-.5-.6-1.4-.6-2.7v-24.4h8.3c1.3,0,2.5-.5,3.4-1.4.9-.9,1.3-2,1.3-3.3s-.5-2.5-1.4-3.4c-.9-.9-2-1.4-3.4-1.4h-8.3v-5.4c0-.8-.3-1.5-.8-2.2-.6-.6-1.3-1-2.2-1s-1.3.2-1.8.6c-.3.2-.5.4-.7.6l-11.6,11.3c-1,.8-1.2,1.8-1.2,2.5,0,1.9,1.2,3,3,3h4.7v25.1c0,2.9.5,5.2,1.6,7,1,1.8,2.4,3.1,3.9,3.9,1.5.8,3,1.3,4.6,1.5,1.5.2,2.7.3,3.8.3s2.9-.2,4.1-.5c1.3-.3,2.4-.7,3.6-1.2,2.3-1.2,2.7-3,2.7-4.3s-.5-2.4-1.4-3.3c-.9-.8-1.9-1.2-3.1-1.2Z"/>
    <path class="cls-1" d="M406.6,307.9c-.8,0-1.5.2-2.2.5-1.5.8-3.1,1.4-4.8,1.8-1.6.4-3.7.7-6.1.7-4.2,0-7.5-1-9.6-3.1-1.9-1.8-3.1-4-3.7-6.8h27.4c1.6,0,2.9-.5,3.9-1.5,1-1,1.5-2.3,1.5-3.7,0-4-.8-7.8-2.5-11.2-1.7-3.5-4.2-6.3-7.4-8.5-3.2-2.2-7.3-3.3-11.9-3.3s-9.2,1.2-12.5,3.5c-3.2,2.3-5.6,5.4-7.2,9-1.5,3.6-2.2,7.5-2.2,11.5,0,7.5,2.1,13.5,6.3,17.7,4.2,4.2,10,6.4,17.3,6.4s7-.4,9.3-1.1c2.3-.7,4.4-1.7,6.4-2.8.8-.4,1.5-1,2-1.7.6-.8.9-1.7.9-2.7s-.5-2.5-1.5-3.4c-1-.9-2.1-1.3-3.4-1.3ZM380.1,291.9c.3-2,.9-3.7,1.8-4.9,1.2-1.6,2.6-2.8,4.2-3.6,3.4-1.5,6.6-1.5,10,0,1.7.8,3.1,2,4.3,3.6.9,1.3,1.6,2.9,1.8,4.9h-22.1Z"/>
  </g>
  <g>
    <path class="cls-2" d="M436.9,295.4c-2.1-1-4.3-1.8-6.5-2.3-2.2-.5-4.3-1-6.2-1.5-1.8-.4-3.3-1-4.4-1.7-.8-.5-1.2-1.2-1.2-2.2s.2-1.9,1.9-3.1c1.5-1,3.7-1.5,6.5-1.5s3.5.1,5,.4c1.6.3,3,.6,4.3,1.1.2,0,.5.1.7.2.3,0,.5,0,.9,0,1.3,0,2.5-.5,3.5-1.5.9-1,1.4-2.1,1.4-3.4s-.3-1.8-.9-2.7c-.6-.9-1.5-1.6-2.6-1.9-1.8-.6-3.8-1.2-6-1.6-2.2-.4-4.5-.6-6.9-.6-5.9,0-10.4,1.4-13.5,4.2-3.1,2.8-4.7,6.4-4.7,10.7s.7,5.3,2.1,7.1c1.4,1.8,3.1,3.2,5.3,4.3,2.1,1,4.2,1.8,6.5,2.3,2.2.5,4.2,1.1,6.2,1.5,1.8.5,3.3,1,4.4,1.6,1,.5,1.1,1.2,1.1,1.7,0,1.5-.5,2.5-1.7,3.3-1.3.9-3.4,1.3-6.4,1.3s-4.4-.2-6.2-.7c-1.8-.5-3.4-1.1-4.9-1.7-.7-.3-1.4-.5-2.1-.5-1.4,0-2.6.5-3.5,1.6-.9,1-1.3,2.1-1.3,3.3s.7,3,2.1,4h.1c2.3,1.3,4.7,2.3,7.4,3,2.6.7,5.6,1.1,8.9,1.1,5.8,0,10.3-1.4,13.3-4.1,3.1-2.8,4.6-6.1,4.6-10s-.7-5.6-2.1-7.5c-1.4-1.8-3.2-3.3-5.3-4.3Z"/>
    <path class="cls-2" d="M472.5,283.2c2,0,3.7.2,5,.7,1.3.5,2.8,1.1,4.2,1.9,2.1,1.2,4.5.8,6-.9.8-1,1.3-2.1,1.3-3.2,0-1.7-.8-3.2-2.3-4.2-1.5-1-3.5-2-5.8-2.9-2.4-.9-5.4-1.4-9-1.4s-8.3,1-12,2.9c-3.7,1.9-6.7,4.7-8.9,8.3-2.2,3.6-3.4,8-3.4,13s1.1,9.3,3.4,12.9c2.2,3.6,5.2,6.4,8.9,8.3,3.7,1.9,7.7,2.9,12,2.9s6.5-.5,9-1.5c2.3-.9,4.3-1.9,5.8-2.9,1.5-1,2.4-2.4,2.4-4.2s-.4-2.2-1.3-3.2c-.9-1.1-2.1-1.6-3.4-1.6s-1.7.2-2.5.7c-1.4.7-2.9,1.3-4.2,1.9-1.3.5-2.9.7-5,.7-4.6,0-8.1-1.3-10.6-3.9-2.5-2.6-3.8-5.9-3.8-10.1s1.2-7.5,3.8-10.1c2.5-2.6,6-3.8,10.6-3.8Z"/>
    <path class="cls-2" d="M528.4,275.6c-2.5-1.7-5.6-2.5-9.1-2.5s-7.5.9-10.2,2.7c-1.5,1-3,2.1-4.3,3.2v-19c0-1.5-.5-2.8-1.6-3.8-1-1-2.3-1.5-3.8-1.5s-2.7.5-3.7,1.5c-1,1-1.5,2.3-1.5,3.8v55.6c0,1.5.5,2.7,1.5,3.7,1,1,2.3,1.5,3.7,1.5s2.7-.5,3.8-1.5c1.1-1,1.6-2.3,1.6-3.8v-25.2c1.6-1.9,3.4-3.6,5.4-5.1,2.1-1.5,4.4-2.2,7.2-2.2s5,.8,6.1,2.2c1.2,1.6,1.9,3.9,1.9,6.8v23.5c0,1.5.5,2.7,1.5,3.7,1,1,2.3,1.5,3.7,1.5s2.7-.5,3.8-1.5c1.1-1,1.6-2.3,1.6-3.8v-24.3c0-3.3-.7-6.3-1.9-9-1.3-2.8-3.2-5-5.7-6.7Z"/>
    <path class="cls-2" d="M584.1,299.8c1-1,1.5-2.3,1.5-3.7,0-4-.8-7.8-2.5-11.2-1.7-3.5-4.2-6.3-7.4-8.5-3.2-2.2-7.3-3.3-11.9-3.3s-9.2,1.2-12.5,3.5c-3.2,2.3-5.6,5.4-7.2,9-1.5,3.6-2.2,7.5-2.2,11.5,0,7.5,2.1,13.5,6.3,17.7,4.2,4.2,10,6.4,17.3,6.4s7-.4,9.3-1.1c2.3-.7,4.4-1.7,6.4-2.8.8-.4,1.5-1,2-1.7.6-.8,1-1.7,1-2.7s-.5-2.5-1.5-3.4c-1-.9-2.1-1.3-3.4-1.3s-1.5.2-2.2.5c-1.5.8-3.1,1.4-4.8,1.8-1.6.4-3.7.7-6.1.7-4.2,0-7.5-1-9.6-3.1-1.9-1.8-3.1-4-3.7-6.8h27.4c1.6,0,2.9-.5,3.9-1.5ZM552.8,292.2c.3-2,.9-3.7,1.8-4.9,1.2-1.6,2.6-2.8,4.2-3.6,3.4-1.5,6.6-1.5,10,0,1.7.8,3.1,2,4.3,3.6.9,1.3,1.6,2.9,1.8,4.9h-22.1Z"/>
    <path class="cls-2" d="M625.8,275.9c-3.3-1.9-6.9-2.8-10.6-2.8s-6.1.6-8.7,1.8c-1.6.8-3.2,1.8-4.6,2.9-.2-1.1-.7-2-1.5-2.8-1-1-2.3-1.5-3.8-1.5s-2.7.5-3.7,1.5c-1,1-1.5,2.3-1.5,3.7v56.4c0,1.5.5,2.7,1.5,3.8,1,1.1,2.3,1.6,3.8,1.6s2.8-.5,3.8-1.6c1-1,1.5-2.3,1.5-3.8v-18.6c1.4,1.1,3,2.1,4.6,2.9,2.6,1.2,5.5,1.8,8.7,1.8s7.3-1,10.6-2.8c3.3-1.9,6.1-4.6,8.3-8.2,2.2-3.6,3.2-8,3.2-13.1s-1.1-9.5-3.2-13.1c-2.1-3.6-4.9-6.3-8.3-8.2ZM626.7,297.2c0,4.6-1.2,8.1-3.6,10.5-2.4,2.4-5.4,3.5-9.1,3.5s-4.9-.6-6.9-1.7c-2-1.1-3.7-2.4-5.2-3.9v-16.9c1.5-1.5,3.2-2.8,5.2-3.9,2.1-1.1,4.4-1.7,6.9-1.7,3.7,0,6.7,1.1,9.1,3.5,2.4,2.3,3.6,5.8,3.6,10.5Z"/>
    <path class="cls-2" d="M678.1,275.9c-3.3-1.9-6.9-2.8-10.6-2.8s-6.1.6-8.7,1.8c-1.6.8-3.2,1.8-4.6,2.9-.2-1.1-.7-2-1.5-2.8-1-1-2.3-1.5-3.8-1.5s-2.7.5-3.7,1.5c-1,1-1.5,2.3-1.5,3.7v56.4c0,1.5.5,2.7,1.5,3.8,1,1,2.3,1.6,3.8,1.6s2.8-.5,3.8-1.6c1-1,1.5-2.3,1.5-3.8v-18.6c1.4,1.1,3,2.1,4.6,2.9,2.6,1.2,5.5,1.8,8.7,1.8s7.3-1,10.6-2.8c3.3-1.9,6.1-4.6,8.3-8.2,2.2-3.6,3.2-8,3.2-13.1s-1.1-9.5-3.2-13.1c-2.1-3.6-4.9-6.3-8.3-8.2ZM679,297.2c0,4.6-1.2,8.1-3.6,10.5-2.4,2.4-5.4,3.5-9.1,3.5s-4.9-.6-6.9-1.7c-2-1.1-3.7-2.4-5.2-3.9v-16.9c1.5-1.5,3.2-2.8,5.2-3.9,2.1-1.1,4.4-1.7,6.9-1.7,3.7,0,6.7,1.1,9.1,3.5,2.4,2.3,3.6,5.8,3.6,10.5Z"/>
    <path class="cls-2" d="M736.3,299.8c1-1,1.5-2.3,1.5-3.7,0-4-.8-7.8-2.5-11.2-1.7-3.5-4.2-6.3-7.4-8.5-3.2-2.2-7.3-3.3-11.9-3.3s-9.2,1.2-12.5,3.5c-3.2,2.3-5.6,5.4-7.2,9-1.5,3.6-2.2,7.5-2.2,11.5,0,7.5,2.1,13.5,6.3,17.7,4.2,4.2,10,6.4,17.3,6.4s7-.4,9.3-1.1c2.3-.7,4.4-1.7,6.4-2.8.8-.4,1.5-1,2-1.7.6-.8.9-1.7.9-2.7s-.5-2.5-1.5-3.4c-1-.9-2.1-1.3-3.4-1.3s-1.5.2-2.2.5c-1.5.8-3.1,1.4-4.8,1.8-1.6.4-3.7.7-6.1.7-4.2,0-7.5-1-9.6-3.1-1.9-1.8-3.1-4-3.7-6.8h27.4c1.6,0,2.9-.5,3.9-1.5ZM711,283.7c3.4-1.5,6.6-1.5,10,0,1.7.8,3.1,2,4.3,3.6.9,1.3,1.6,2.9,1.8,4.9h-22.1c.3-2,.9-3.7,1.8-4.9,1.2-1.6,2.6-2.8,4.2-3.6Z"/>
    <path class="cls-2" d="M769.4,274.7c-1-1-2.2-1.5-3.7-1.5h-.4c-3.3,0-6.2.9-8.6,2.8-1.2.9-2.4,1.9-3.4,2.9,0-1.4-.6-2.7-1.6-3.7-1-1-2.3-1.6-3.8-1.6s-2.7.5-3.8,1.6c-1,1-1.5,2.3-1.5,3.8v36.7c0,1.5.5,2.7,1.5,3.7,1,1,2.3,1.5,3.7,1.5s2.7-.5,3.8-1.5c1.1-1,1.6-2.3,1.6-3.8v-25.6c1.3-1.9,3-3.5,5-4.7,2-1.3,4.4-1.9,6.9-1.9h.4c1.5,0,2.8-.5,3.8-1.4,1-.9,1.6-2.2,1.6-3.7s-.5-2.7-1.5-3.7Z"/>
  </g>
</svg>