<?xml version="1.0" encoding="UTF-8"?>
<svg id="Layer_1" data-name="Layer 1" xmlns="http://www.w3.org/2000/svg" viewBox="0 0 1742.72 385.88">
  <defs>
    <style>
      .cls-1 {
        letter-spacing: 0em;
      }

      .cls-2 {
        letter-spacing: 0em;
      }

      .cls-3 {
        letter-spacing: 0em;
      }

      .cls-4 {
        font-family: Montserrat-SemiBold, Montserrat;
        font-size: 58px;
        font-weight: 600;
      }

      .cls-5 {
        fill: #000828;
        stroke: #1d1d1b;
        stroke-miterlimit: 10;
        stroke-width: .25px;
      }

      .cls-6 {
        letter-spacing: -.02em;
      }

      .cls-7 {
        letter-spacing: 0em;
      }

      .cls-8 {
        letter-spacing: 0em;
      }

      .cls-9 {
        letter-spacing: 0em;
      }
    </style>
  </defs>
  <g>
    <path class="cls-5" d="M232.37,206.48l-22.73-13.23-.21,30.16c-.03,3.59-1.97,6.9-5.09,8.67l-55.26,31.38-59.19-34.74-27.17,15.55,82.77,47.79c2.53,1.46,5.64,1.46,8.17,0l78.68-45.43c2.53-1.46,4.09-4.16,4.09-7.08v-25.99c0-2.91-1.55-5.6-4.06-7.06Z"/>
    <path class="cls-5" d="M145.49,94.35l-78.68,45.43c-2.53,1.46-4.09,4.16-4.09,7.08v27.19c0,2.84,1.48,5.48,3.9,6.97l22.89,14.06.22-30.26c.02-3.59,1.96-6.9,5.09-8.67l55.26-31.38,57.75,33.9,28.61-16.52-82.77-47.79c-2.53-1.46-5.64-1.46-8.17,0Z"/>
    <path class="cls-5" d="M145.49,226.59c2.53,1.46,5.64,1.46,8.17,0l22.01-12.71c2.53-1.46,4.09-4.16,4.09-7.08v-25.41c0-2.92-1.56-5.62-4.09-7.08l-22.01-12.71c-2.53-1.46-5.64-1.46-8.17,0l-22,12.71c-2.53,1.46-4.09,4.16-4.09,7.08v25.41c0,2.92,1.56,5.62,4.09,7.08l22,12.71Z"/>
    <path class="cls-5" d="M336.2,185.46l-8.31-2.32c-8.51-2.51-18.95-5.8-18.95-13.54,0-5.99,5.22-10.05,12.76-10.05,9.48,0,14.5,6.38,17.02,13.34l24.95-8.12c-4.45-15.47-19.53-27.27-41.19-27.27-23.21,0-40.61,13.15-40.61,33.84s15.86,28.04,29.2,32.1l11.41,3.48c7.16,2.13,15.28,4.64,15.28,12.38s-7.73,10.25-14.12,10.25c-7.73,0-16.82-4.25-21.66-16.24l-25.14,8.12c5.03,18.18,22.43,30.36,46.99,30.36,26.11,0,42.74-13.73,42.74-35,0-22.82-19.92-28.43-30.36-31.33Z"/>
    <path class="cls-5" d="M429.99,137.5c-32.87,0-55.69,23.79-55.69,57.24s22.82,57.05,55.69,57.05,55.69-23.4,55.69-57.05-22.82-57.24-55.69-57.24ZM429.99,225.87c-16.24,0-27.65-12.96-27.65-31.14s11.41-31.33,27.65-31.33,27.46,12.76,27.46,31.33-11.22,31.14-27.46,31.14Z"/>
    <path class="cls-5" d="M575.99,155.1h-.39c-6-9.86-17.21-17.6-33.26-17.6-27.46,0-48.54,23.01-48.54,55.5,0,29.39,17.21,54.92,49.51,54.92,12.18,0,24.36-4.06,31.91-16.05h.39v5.03c0,23.21-9.67,34.23-27.46,34.23-12.57,0-20.69-5.03-25.92-16.82l-24.56,8.9c9.48,24.95,32.1,30.94,51.25,30.94,27.85,0,53.76-12.76,53.76-56.47v-97.08h-26.69v14.5ZM548.92,222.01c-15.86,0-27.07-13.15-27.07-29.59s11.22-29.2,27.07-29.2,27.27,12.76,27.27,29.2-11.22,29.59-27.27,29.59Z"/>
    <path class="cls-5" d="M673.65,251.79c25.14,0,43.32-13.73,50.47-31.33l-25.33-10.25c-4.83,11.22-14.31,17.21-25.33,17.21-14.12,0-26.3-8.51-28.62-24.17h78.9v-8.32c0-39.64-25.14-57.43-52.02-57.43-31.52,0-53.95,24.37-53.95,57.63s23.98,56.66,55.89,56.66ZM671.52,160.7c12.18,0,23.01,6.38,24.95,22.24h-50.28c2.71-12.76,11.41-22.24,25.33-22.24Z"/>
    <rect class="cls-5" x="739.2" y="93.79" width="27.07" height="154.7"/>
    <rect class="cls-5" x="787.93" y="140.59" width="27.07" height="107.91"/>
    <path class="cls-5" d="M801.47,92.25c-9.28,0-16.82,7.15-16.82,16.63s7.15,17.02,16.82,17.02,16.63-7.54,16.63-17.21c0-8.9-7.15-16.44-16.63-16.44Z"/>
    <path class="cls-5" d="M863.74,192.8c0-20.5,11.02-29.39,23.78-29.39,16.63,0,20.31,14.7,20.31,29.01v56.08h27.07v-68.07c0-29.39-17.79-42.93-37.71-42.93-13.15,0-25.53,6-33.45,18.95h-.39v-15.86h-26.69v107.91h27.07v-55.7Z"/>
    <polygon class="cls-5" points="1051.16 140.59 1024.08 140.59 982.56 205.91 982.56 93.79 955.48 93.79 955.48 248.5 982.56 248.5 1006.34 211.09 1029.57 248.5 1056.65 248.5 1020.04 189.55 1051.16 140.59"/>
  </g>
  <text class="cls-4" transform="translate(622.15 317.53)"><tspan class="cls-6" x="0" y="0">F</tspan><tspan x="36.08" y="0">o</tspan><tspan class="cls-7" x="73.48" y="0">r</tspan><tspan class="cls-2" x="97.56" y="0">m</tspan><tspan x="158.69" y="0">e</tspan><tspan class="cls-7" x="194.76" y="0">r</tspan><tspan x="218.83" y="0">ly GO</tspan><tspan class="cls-8" x="378.74" y="0">c</tspan><tspan class="cls-3" x="411.97" y="0">on</tspan><tspan class="cls-1" x="489.11" y="0">n</tspan><tspan x="528.9" y="0">e</tspan><tspan class="cls-9" x="564.97" y="0">c</tspan><tspan x="599.07" y="0">tIT &amp; Geodan</tspan></text>
</svg>